<svg width="620" height="469" viewBox="0 0 620 469" fill="none" xmlns="http://www.w3.org/2000/svg">
<circle cx="617" cy="168" r="3" fill="#F4EDE8"/>
<circle cx="614" cy="3" r="3" fill="#F4EDE8"/>
<circle cx="3" cy="327" r="3" fill="#F4EDE8"/>
<path d="M480.5 403.835C465.563 420.438 449.221 433.305 432 442.838M453.5 396.5C464 405 516 407.5 518 407C520 406.5 522.966 400.5 523 398C518 372.5 497 344.5 483.5 331.5C480.573 328.682 477.388 325.417 474 321.965M270 261C306.5 276.5 380.5 268 432 289.5C440.882 292.539 449.764 299.074 458.084 306.5M270 261C263.886 245.89 250.333 222 240.5 209C245 177 231 190.5 226 209C196.5 205 142 217 130 239C130 239 123 228 120 231.5C95.9999 381.5 292.42 520.106 432 442.838M270 261C251 280.5 154 364 89.4999 312.5C15 246 58.9997 169 92.9999 141.5C127 114 208 98.4998 250 147C283 188 283.5 209 270 261ZM237.5 328.5C226.5 341 205.5 337 204.5 338C203.5 339 203 344.5 204.5 346.5C207.5 351 227.8 356.9 241 350.5M150.319 357.5C144.5 360 131 358.5 129.5 360C128 361.5 129.5 368.5 129.5 368.5C132 372.5 150.319 378 162.24 373.5M453.5 428.8C456 435.3 461.5 452.5 459 456.5C456.5 460.5 451.5 460.5 448.5 460.5C445.5 460.5 432 442.838 432 442.838M458.084 306.5C470.5 277.5 500.5 271 518 242.5C535.5 214 527 210.5 536 208.5C542.5 206.897 536 231.5 536 231.5C511.5 294.5 488.5 282 474 321.965M458.084 306.5C463.703 311.516 469.066 316.938 474 321.965M181 269.5C181.167 271.833 188 273.5 189.5 267C196.5 271.5 197.833 261.5 198 263.5M187 133C198 131 230.7 144.4 237.5 152M254.5 171C252.167 167.833 246.8 161.3 244 160.5M316.5 114.5C319 111.5 328.5 114.5 328.5 114.5M340.5 114.5C337 118 328.5 114.5 328.5 114.5M328.5 114.5C328.5 114.5 326.5 138 328.5 141.5M421 45.5C424.5 49 430.25 45.5 430.25 45.5M439.5 45.5C437 42 430.25 45.5 430.25 45.5M430.25 45.5C435 53 427 68 431 72.5M451 42C451.567 45.5447 452.303 50.7964 452.839 56M453 72.5C453.919 69.9716 453.562 63.0296 452.839 56M467.5 42C467.391 45.1435 467.343 49.3093 467.451 53.5M471 71C468.571 71 467.674 62.1962 467.451 53.5M452.839 56L467.451 53.5M485.5 45.5C490 50.5 481.5 72.5 485.5 72.5M503.549 71C511.5 65.5 498 41 505.5 45.5C510.733 48.6401 516.5 74 520 71C522.8 68.6 525.167 53 526 45.5M550.5 49C547 45.5 542 46.5 539.5 56C537 65.5 539 71 548.5 72.5C554.833 73.5 559.5 59 545.5 61.5M415 106.5C404.5 109.5 403 115.5 409 120.5C415 125.5 426 132 407 138M442.5 106.5C434 109.5 429.5 108 430.25 120.5C431 133 432.161 136.5 442.5 136M431 120.5C434.833 119.833 442.5 118.9 442.5 120.5M561 133.5C560.281 131.463 559.381 128.564 558.634 125.5M565 120.5C574.5 103 561 106.5 558 111.5C556.463 114.062 557.305 120.042 558.634 125.5M565 120.5C571 124.5 566.833 134.333 573 133.5M565 120.5C561 121 565 120.5 558.634 125.5M467.5 104C459 107 454.5 105.5 455.25 118C456 130.5 457.161 134 467.5 133.5M456 118C459.833 117.333 467.5 116.4 467.5 118M594.75 104C586.25 107 581.75 105.5 582.5 118C583.25 130.5 584.411 134 594.75 133.5M583.25 118C587.083 117.333 594.75 116.4 594.75 118M503.549 109C504.116 112.545 504.852 117.796 505.388 123M505.5 136C506.419 133.472 506.111 130.03 505.388 123M520.049 109C522 110.5 519.941 118.809 520.049 123M524 133.5C521.571 133.5 520.273 131.696 520.049 123M505.388 123H520.049M547.5 106.5C539 109.5 534.5 108 535.25 120.5C536 133 537.161 136.5 547.5 136M536 120.5C539.833 119.833 547.5 118.9 547.5 120.5M362.5 68C362.5 58 359 40.5 362.5 45.5C366 50.5 376.085 73.8246 380.5 72.5C387.5 68 378.5 49 383 45.5M358.5 88.5C405 80 524 95 558.634 85.5M432 194.5C434 198 434 201.333 432 202M429 199.5C431 198.5 431 196 438.5 200M4 88.5C6.00015 92 6 95.3333 4 96M1 93.5C3 92.5 3 90 10.5 94M157.5 460.5C159.5 464 159.5 467.333 157.5 468M154.5 465.5C156.5 464.5 156.5 462 164 466M349 120.5C344 130.5 347.5 141 358.5 144C369.5 147 368.536 130.144 367.5 126C367 124 361 105 349 120.5ZM396 48C389.5 57 393 74 401 72.5C409 71 412 67 412 61.5C412 56 405 36.5 396 48ZM214.5 249.5C220.5 252.3 223 247.333 223.5 244.5C216 243 214.5 249.5 214.5 249.5Z" stroke="#F4EDE8" stroke-width="2"/>
<circle cx="187" cy="80" r="3" fill="#F4EDE8"/>
<circle cx="148" cy="269" r="5" fill="#F4EDE8"/>
</svg>
